<?xml version="1.0" encoding="utf-8"?>
<!-- Generator: Adobe Illustrator 16.0.3, SVG Export Plug-In . SVG Version: 6.00 Build 0)  -->
<!DOCTYPE svg PUBLIC "-//W3C//DTD SVG 1.1//EN" "http://www.w3.org/Graphics/SVG/1.1/DTD/svg11.dtd">
<svg version="1.1" id="_x32_" xmlns="http://www.w3.org/2000/svg" xmlns:xlink="http://www.w3.org/1999/xlink" x="0px" y="0px"
	 width="20px" height="20px" viewBox="0 0 20 20" enable-background="new 0 0 20 20" xml:space="preserve">
<g>
	<path fill="#01A8B7" d="M19.95,8.123c-0.141-0.438-0.548-0.734-1.008-0.734h-6.082l-1.853-5.768C10.867,1.183,10.46,0.886,10,0.886
		S9.134,1.183,8.993,1.621L7.141,7.388H1.059c-0.459,0-0.867,0.296-1.008,0.734C-0.09,8.56,0.068,9.038,0.441,9.306l4.932,3.541
		L3.475,18.61c-0.145,0.438,0.011,0.917,0.383,1.188c0.373,0.271,0.877,0.27,1.248-0.002L10,16.209l4.896,3.587
		c0.371,0.271,0.875,0.272,1.248,0.002s0.527-0.75,0.383-1.188l-1.899-5.763l4.932-3.541C19.933,9.039,20.091,8.56,19.95,8.123z"/>
</g>
</svg>
