<?xml version="1.0" encoding="utf-8"?>
<!-- Generator: Adobe Illustrator 16.0.3, SVG Export Plug-In . SVG Version: 6.00 Build 0)  -->
<!DOCTYPE svg PUBLIC "-//W3C//DTD SVG 1.1//EN" "http://www.w3.org/Graphics/SVG/1.1/DTD/svg11.dtd">
<svg version="1.1" id="_x32_" xmlns="http://www.w3.org/2000/svg" xmlns:xlink="http://www.w3.org/1999/xlink" x="0px" y="0px"
	 width="22px" height="22px" viewBox="0 0 22 22" enable-background="new 0 0 22 22" xml:space="preserve">
<g>
	<path fill="#FFF000" d="M20.87,5.764c-0.229-0.433-0.711-0.668-1.192-0.583l-6.375,1.124l-3.008-5.703
		c-0.229-0.433-0.71-0.669-1.192-0.584c-0.481,0.085-0.854,0.472-0.92,0.957L7.307,7.362L0.932,8.486
		C0.449,8.571,0.077,8.957,0.011,9.442c-0.066,0.484,0.187,0.957,0.628,1.168l5.824,2.8l-0.925,6.393
		c-0.07,0.485,0.181,0.959,0.621,1.174s0.969,0.121,1.308-0.233l4.468-4.665l5.795,2.855c0.438,0.216,0.968,0.124,1.308-0.229
		c0.34-0.352,0.414-0.884,0.183-1.315l-3.056-5.69l4.516-4.624C21.021,6.727,21.098,6.196,20.87,5.764z"/>
</g>
</svg>
