<?xml version="1.0" encoding="utf-8"?>
<!-- Generator: Adobe Illustrator 16.0.3, SVG Export Plug-In . SVG Version: 6.00 Build 0)  -->
<!DOCTYPE svg PUBLIC "-//W3C//DTD SVG 1.1//EN" "http://www.w3.org/Graphics/SVG/1.1/DTD/svg11.dtd">
<svg version="1.1" id="_x32_" xmlns="http://www.w3.org/2000/svg" xmlns:xlink="http://www.w3.org/1999/xlink" x="0px" y="0px"
	 width="20px" height="20px" viewBox="0 0 20 20" enable-background="new 0 0 20 20" xml:space="preserve">
<g>
	<path fill="#01A8B7" d="M10.043,1.417c-5.983,0-10.045,3.051-10.045,7.797c0,2.92,1.214,5.26,3.559,6.765
		c0.156,0.102,0.341,0.116,0.271,0.405c-0.28,1.169-0.766,3.253-0.766,3.253c-0.021,0.088,0.013,0.18,0.084,0.235
		c0.072,0.056,0.169,0.063,0.25,0.021c0,0,3.433-2.034,3.89-2.289c1.068-0.609,1.988-0.729,2.678-0.729
		C14.711,16.875,20,14.977,20,9.164C20,4.654,16.366,1.417,10.043,1.417z"/>
</g>
</svg>
