<?xml version="1.0" encoding="utf-8"?>
<!-- Generator: Adobe Illustrator 16.0.3, SVG Export Plug-In . SVG Version: 6.00 Build 0)  -->
<!DOCTYPE svg PUBLIC "-//W3C//DTD SVG 1.1//EN" "http://www.w3.org/Graphics/SVG/1.1/DTD/svg11.dtd">
<svg version="1.1" id="_x32_" xmlns="http://www.w3.org/2000/svg" xmlns:xlink="http://www.w3.org/1999/xlink" x="0px" y="0px"
	 width="20px" height="20px" viewBox="0 0 20 20" enable-background="new 0 0 20 20" xml:space="preserve">
<g>
	<path fill="#01A8B7" d="M20.001,5.149c0-0.839-0.681-1.519-1.52-1.519s-1.52,0.68-1.52,1.519c0,0.411,0.163,0.782,0.428,1.055
		c-1.033,2.14-3.009,2.887-4.539,2.21c-1.365-0.603-1.868-2.327-2.038-3.663c0.556-0.292,0.935-0.875,0.935-1.546
		c0-0.965-0.782-1.747-1.748-1.747c-0.965,0-1.747,0.782-1.747,1.747c0,0.672,0.379,1.254,0.935,1.546
		c-0.17,1.336-0.673,3.06-2.036,3.663c-1.531,0.676-3.506-0.071-4.541-2.21C2.876,5.931,3.039,5.56,3.039,5.149
		c0-0.839-0.681-1.519-1.52-1.519S0,4.31,0,5.149c0,0.773,0.577,1.41,1.323,1.506l1.751,6.41h13.853l1.751-6.41
		C19.424,6.559,20.001,5.922,20.001,5.149z"/>
	<path fill="#01A8B7" d="M17.775,15.798c0,0.625-0.507,1.13-1.132,1.13H3.357c-0.625,0-1.131-0.506-1.131-1.13v-0.094
		c0-0.625,0.506-1.131,1.131-1.131h13.286c0.625,0,1.132,0.506,1.132,1.131V15.798z"/>
</g>
</svg>
