<?xml version="1.0" encoding="utf-8"?>
<!-- Generator: Adobe Illustrator 16.0.3, SVG Export Plug-In . SVG Version: 6.00 Build 0)  -->
<!DOCTYPE svg PUBLIC "-//W3C//DTD SVG 1.1//EN" "http://www.w3.org/Graphics/SVG/1.1/DTD/svg11.dtd">
<svg version="1.1" id="_x32_" xmlns="http://www.w3.org/2000/svg" xmlns:xlink="http://www.w3.org/1999/xlink" x="0px" y="0px"
	 width="22px" height="22px" viewBox="0 0 22 22" enable-background="new 0 0 22 22" xml:space="preserve">
<g>
	<path fill="#FFF000" d="M17.89,9.193c-0.197-0.371-0.609-0.573-1.022-0.5l-5.464,0.963L8.825,4.769
		c-0.196-0.371-0.609-0.573-1.022-0.5c-0.412,0.073-0.732,0.405-0.789,0.82l-0.75,5.475l-5.464,0.963
		c-0.414,0.072-0.733,0.403-0.79,0.819c-0.057,0.415,0.16,0.819,0.538,1.001l4.992,2.399l-0.793,5.479
		c-0.06,0.416,0.155,0.821,0.532,1.006c0.377,0.185,0.831,0.104,1.121-0.199l3.831-3.999l4.967,2.447
		c0.375,0.186,0.829,0.107,1.121-0.196c0.291-0.301,0.354-0.758,0.156-1.126l-2.619-4.877l3.871-3.963
		C18.019,10.019,18.084,9.563,17.89,9.193z"/>
</g>
</svg>
